<svg width="1091" height="1029" viewBox="0 0 491 429" fill="none" xmlns="http://www.w3.org/2000/svg">
<path d="M800 316.042V224.011C800 211.067 784.993 200.573 766.482 200.573H501.504C500.07 186.795 499.328 172.947 499.328 159.05V69.4531C499.328 31.1563 454.771 0 400.002 0C345.231 0 300.674 31.1563 300.674 69.4531V159.048C300.674 172.945 299.932 186.794 298.498 200.572H33.5182C15.0072 200.572 0 211.066 0 224.009V316.041C0 328.984 15.0072 339.478 33.5182 339.478H259.047C215.163 432.363 137.811 517.044 32.8322 584.192C13.2554 596.714 1.8234 613.816 0.643555 632.35C-0.536287 650.883 8.67676 668.63 26.5844 682.317C45.3524 696.664 72.0709 704.892 99.8888 704.892C124.755 704.892 148.557 698.425 166.912 686.684C216.624 654.886 261.344 619.92 300.672 582.431V776.563C300.672 789.506 315.679 800 334.19 800H465.808C484.319 800 499.326 789.506 499.326 776.563V582.438C538.654 619.925 583.372 654.891 633.081 686.686C651.438 698.428 675.241 704.894 700.107 704.894C727.925 704.894 754.643 696.664 773.411 682.319C791.321 668.63 800.534 650.884 799.352 632.352C798.172 613.817 786.738 596.714 767.163 584.194C662.186 517.044 584.833 432.364 540.951 339.48H766.477C784.993 339.48 800 328.986 800 316.042ZM367.711 69.4531C367.711 57.0031 382.195 46.875 400.002 46.875C417.807 46.875 432.291 57.0031 432.291 69.4531V159.048C432.291 172.938 431.652 186.783 430.417 200.572H365.709C367.034 186.789 367.711 172.941 367.711 159.048V69.4531ZM121.665 652.1C115.698 655.916 107.965 658.019 99.8888 658.019C90.7071 658.02 82.2404 655.414 76.0462 650.68C70.2252 646.23 67.2309 640.463 67.6152 634.436C67.9996 628.413 71.7134 622.852 78.0796 618.781C197.107 542.647 283.292 445.67 329.348 339.478H396.63C348.773 458.477 254.191 567.331 121.665 652.1ZM432.291 753.125H367.711V509.675C379.183 495.403 389.956 480.867 400 466.092C410.044 480.869 420.817 495.406 432.291 509.68V753.125ZM721.923 618.781C728.287 622.852 732 628.413 732.385 634.436C732.769 640.461 729.775 646.23 723.952 650.68C717.76 655.413 709.293 658.019 700.111 658.019C692.036 658.019 684.302 655.916 678.333 652.098C571.146 583.539 488.794 499.217 435.896 406.522C447.498 384.555 457.566 362.18 466.06 339.478H470.654C516.711 445.67 602.895 542.647 721.923 618.781ZM732.963 292.605H67.0365V247.448H732.963V292.605Z" fill="white"/>
</svg>
